<mxfile host="app.diagrams.net" modified="2022-06-22T01:38:22.032Z" agent="5.0 (X11; Linux x86_64) AppleWebKit/537.36 (KHTML, like Gecko) Chrome/102.0.0.0 Safari/537.36" etag="Ipm5MeDHVSVz0Au9igZy" version="19.0.3" type="github">
  <diagram id="Nc_1yeXyaFWwP883QMn9" name="Page-1">
    <mxGraphModel dx="2031" dy="1140" grid="1" gridSize="10" guides="1" tooltips="1" connect="1" arrows="1" fold="1" page="1" pageScale="1" pageWidth="1600" pageHeight="900" math="0" shadow="0">
      <root>
        <mxCell id="0" />
        <mxCell id="1" parent="0" />
        <mxCell id="FCu0ZWnHnzeFnXwt4U6b-1" value="" style="whiteSpace=wrap;html=1;fillColor=none;" vertex="1" parent="1">
          <mxGeometry x="40" y="40" width="1520" height="840" as="geometry" />
        </mxCell>
        <mxCell id="t14pOA8oHzgpplHpscmw-1" value="App" style="rounded=0;whiteSpace=wrap;html=1;" vertex="1" parent="1">
          <mxGeometry x="290" y="410" width="120" height="60" as="geometry" />
        </mxCell>
        <mxCell id="FCu0ZWnHnzeFnXwt4U6b-2" value="&lt;font style=&quot;font-size: 34px;&quot;&gt;Header&lt;/font&gt;" style="whiteSpace=wrap;html=1;fillColor=none;" vertex="1" parent="1">
          <mxGeometry x="80" y="80" width="1440" height="80" as="geometry" />
        </mxCell>
        <mxCell id="FCu0ZWnHnzeFnXwt4U6b-3" value="&lt;font style=&quot;font-size: 34px;&quot;&gt;ForumController&lt;br&gt;&lt;/font&gt;" style="whiteSpace=wrap;html=1;fillColor=none;" vertex="1" parent="1">
          <mxGeometry x="80" y="200" width="1440" height="80" as="geometry" />
        </mxCell>
        <mxCell id="FCu0ZWnHnzeFnXwt4U6b-4" value="&lt;font style=&quot;font-size: 34px;&quot;&gt;&lt;br&gt;&lt;/font&gt;" style="whiteSpace=wrap;html=1;fillColor=none;" vertex="1" parent="1">
          <mxGeometry x="80" y="200" width="1440" height="640" as="geometry" />
        </mxCell>
      </root>
    </mxGraphModel>
  </diagram>
</mxfile>
